<svg id="svg" version="1.1" xmlns="http://www.w3.org/2000/svg" xmlns:xlink="http://www.w3.org/1999/xlink" width="400" height="218.25192802056557" viewBox="0, 0, 400,218.25192802056557"><g id="svgg"><path id="path0" d="M261.965 1.473 C 262.961 1.513,264.533 1.513,265.458 1.472 C 266.383 1.431,265.568 1.398,263.646 1.398 C 261.725 1.399,260.968 1.432,261.965 1.473 M364.629 47.584 C 364.629 47.757,365.758 48.067,365.895 47.932 C 365.932 47.896,365.661 47.763,365.295 47.635 C 364.929 47.507,364.629 47.484,364.629 47.584 M337.664 51.494 C 337.303 51.714,336.861 52.075,336.681 52.295 C 336.290 52.774,337.312 52.178,338.087 51.476 C 338.630 50.983,338.489 50.990,337.664 51.494 M376.097 53.111 C 376.574 53.501,377.677 54.533,378.546 55.403 C 379.416 56.274,380.202 56.985,380.293 56.983 C 380.559 56.976,375.748 52.402,375.476 52.402 C 375.339 52.402,375.619 52.721,376.097 53.111 M334.098 54.510 C 333.098 55.533,332.317 56.407,332.363 56.453 C 332.409 56.499,333.323 55.655,334.395 54.578 C 335.467 53.501,336.248 52.627,336.131 52.636 C 336.013 52.644,335.099 53.488,334.098 54.510 M328.536 63.113 C 328.440 63.481,328.474 63.516,328.729 63.305 C 329.076 63.016,329.141 62.664,328.846 62.664 C 328.740 62.664,328.601 62.866,328.536 63.113 M384.010 64.748 C 384.067 65.046,384.186 65.335,384.274 65.390 C 384.362 65.444,384.388 65.245,384.331 64.946 C 384.274 64.648,384.155 64.359,384.067 64.305 C 383.978 64.250,383.953 64.449,384.010 64.748 M327.446 67.758 C 327.381 67.928,327.276 69.234,327.213 70.660 L 327.099 73.253 327.372 70.415 C 327.649 67.535,327.658 67.204,327.446 67.758 M327.258 74.509 C 327.299 75.139,327.436 75.753,327.563 75.873 C 327.722 76.024,327.750 75.968,327.652 75.692 C 327.575 75.472,327.511 74.858,327.511 74.327 C 327.511 73.797,327.437 73.362,327.347 73.362 C 327.257 73.362,327.217 73.878,327.258 74.509 M382.304 82.551 C 382.170 82.802,382.118 83.064,382.188 83.134 C 382.257 83.203,382.314 83.153,382.314 83.021 C 382.314 82.890,382.469 82.628,382.658 82.439 C 382.846 82.250,382.899 82.096,382.774 82.096 C 382.650 82.096,382.438 82.301,382.304 82.551 M380.550 85.461 C 380.309 85.870,379.974 86.258,379.808 86.322 C 379.641 86.386,379.385 86.665,379.239 86.942 C 379.093 87.219,379.381 87.003,379.879 86.463 C 381.293 84.930,381.457 84.716,381.215 84.716 C 381.091 84.716,380.792 85.051,380.550 85.461 M331.785 85.343 C 332.016 85.568,332.244 85.717,332.291 85.676 C 332.429 85.554,331.846 84.934,331.594 84.934 C 331.468 84.934,331.554 85.118,331.785 85.343 M333.297 87.123 C 334.473 88.397,334.771 88.664,334.887 88.548 C 334.978 88.458,333.256 86.700,332.642 86.256 C 332.402 86.082,332.697 86.472,333.297 87.123 M377.948 88.428 C 377.477 88.908,377.166 89.301,377.257 89.301 C 377.348 89.301,377.806 88.908,378.275 88.428 C 378.744 87.948,379.055 87.555,378.966 87.555 C 378.877 87.555,378.418 87.948,377.948 88.428 M335.355 89.373 C 335.911 89.986,336.031 90.061,336.019 89.793 C 336.016 89.703,335.745 89.440,335.419 89.210 L 334.825 88.791 335.355 89.373 M376.041 90.066 C 375.669 90.486,375.438 90.830,375.526 90.830 C 375.701 90.830,376.474 90.021,376.727 89.574 C 377.000 89.092,376.736 89.281,376.041 90.066 M336.245 89.938 C 336.245 90.016,336.807 90.617,337.495 91.274 C 338.183 91.930,338.503 92.178,338.205 91.823 C 337.452 90.928,336.245 89.766,336.245 89.938 M374.236 91.516 L 373.472 92.184 374.155 91.843 C 374.530 91.655,374.896 91.350,374.967 91.165 C 375.133 90.731,375.133 90.731,374.236 91.516 M372.858 92.457 C 372.684 92.631,372.505 92.742,372.460 92.703 C 372.416 92.665,372.183 92.829,371.943 93.068 C 371.507 93.502,371.507 93.503,372.177 93.163 C 372.546 92.976,372.976 92.670,373.132 92.482 C 373.489 92.051,373.283 92.032,372.858 92.457 M339.738 93.117 C 339.738 93.174,340.057 93.376,340.448 93.566 L 341.157 93.913 340.611 93.468 C 340.086 93.039,339.738 92.900,339.738 93.117 M370.165 93.988 C 369.913 94.164,369.646 94.246,369.570 94.170 C 369.494 94.094,369.432 94.147,369.432 94.287 C 369.432 94.648,369.677 94.597,370.306 94.105 C 370.942 93.607,370.835 93.519,370.165 93.988 M366.819 95.406 C 366.642 95.518,366.551 95.663,366.616 95.728 C 366.681 95.794,366.924 95.704,367.156 95.529 C 367.616 95.180,367.336 95.079,366.819 95.406 M348.609 96.931 C 348.830 97.132,350.360 97.449,350.165 97.254 C 350.093 97.182,349.671 97.041,349.226 96.941 C 348.782 96.841,348.504 96.836,348.609 96.931 M360.699 97.131 C 360.699 97.235,360.944 97.272,361.245 97.215 C 361.545 97.158,361.790 97.073,361.790 97.027 C 361.790 96.981,361.545 96.943,361.245 96.943 C 360.944 96.943,360.699 97.028,360.699 97.131 M337.882 128.058 C 334.545 128.788,329.514 131.376,327.746 133.275 C 327.455 133.587,327.111 133.847,326.982 133.852 C 326.852 133.858,325.961 134.703,325.000 135.730 C 324.039 136.758,322.787 138.084,322.216 138.679 C 321.646 139.273,321.179 139.828,321.178 139.912 C 321.177 139.996,320.907 140.363,320.578 140.727 C 319.770 141.618,318.996 142.728,318.996 142.993 C 318.996 143.112,318.866 143.288,318.708 143.384 C 318.436 143.549,317.459 145.094,316.485 146.898 C 316.245 147.343,315.985 147.757,315.908 147.817 C 315.674 147.999,313.319 152.904,313.319 153.209 C 313.319 153.365,313.204 153.493,313.064 153.493 C 312.924 153.493,312.874 153.558,312.953 153.637 C 313.032 153.716,313.009 153.888,312.903 154.019 C 312.796 154.150,312.498 154.995,312.240 155.895 C 311.981 156.796,311.677 157.729,311.564 157.969 C 310.481 160.271,310.463 169.191,311.538 171.339 C 311.843 171.948,312.816 174.104,312.895 174.345 C 312.978 174.596,313.065 174.714,313.966 175.793 C 314.331 176.229,314.629 176.683,314.629 176.802 C 314.629 176.921,315.096 177.423,315.666 177.918 C 316.236 178.412,317.034 179.122,317.439 179.495 C 317.844 179.867,318.459 180.271,318.804 180.391 C 319.150 180.512,319.432 180.686,319.432 180.778 C 319.432 180.908,321.768 182.092,322.271 182.216 C 322.424 182.254,323.172 182.538,323.690 182.756 C 323.930 182.857,324.667 183.063,325.328 183.214 C 325.988 183.365,326.627 183.558,326.747 183.644 C 328.143 184.640,341.880 184.624,344.214 183.623 C 344.454 183.520,344.945 183.392,345.306 183.338 C 346.831 183.111,349.475 182.468,349.727 182.264 C 349.877 182.142,350.002 182.128,350.003 182.233 C 350.005 182.338,350.079 182.314,350.167 182.180 C 350.255 182.045,350.917 181.767,351.638 181.561 C 353.307 181.084,356.010 179.740,357.969 178.413 C 358.810 177.844,359.670 177.313,359.880 177.233 C 360.090 177.153,360.262 176.987,360.262 176.863 C 360.262 176.739,360.369 176.638,360.499 176.638 C 360.821 176.638,363.537 173.979,363.537 173.664 C 363.537 173.526,363.783 173.252,364.083 173.055 C 364.383 172.858,364.629 172.566,364.629 172.405 C 364.629 172.244,364.854 171.877,365.129 171.591 C 365.405 171.304,365.816 170.628,366.044 170.087 C 366.271 169.547,366.574 168.957,366.716 168.777 C 367.029 168.381,367.609 166.590,367.813 165.393 C 367.894 164.913,368.050 164.407,368.158 164.270 C 368.746 163.526,368.726 154.094,368.136 153.717 C 368.038 153.654,367.888 153.160,367.804 152.620 C 367.601 151.324,367.064 149.448,366.585 148.362 C 365.616 146.169,363.861 142.658,363.603 142.397 C 363.447 142.238,363.319 141.977,363.319 141.815 C 363.319 141.654,363.024 141.244,362.664 140.903 C 362.303 140.563,362.009 140.181,362.009 140.054 C 362.009 139.514,355.531 132.533,355.029 132.533 C 354.947 132.533,354.652 132.290,354.373 131.994 C 354.095 131.697,353.789 131.503,353.693 131.562 C 353.598 131.620,353.441 131.531,353.343 131.362 C 353.127 130.989,350.223 129.430,349.017 129.040 C 348.537 128.885,348.095 128.683,348.034 128.591 C 347.544 127.846,340.537 127.478,337.882 128.058 " stroke="none" fill="#248c24" fill-rule="evenodd"></path><path id="path1" d="M251.965 95.776 C 251.188 95.828,249.627 96.060,247.817 96.393 C 247.757 96.404,247.484 96.537,247.212 96.688 C 246.939 96.840,246.620 96.904,246.502 96.831 C 246.384 96.759,246.288 96.803,246.288 96.930 C 246.288 97.058,246.153 97.162,245.988 97.162 C 245.590 97.162,243.718 97.995,243.567 98.241 C 243.501 98.347,243.006 98.647,242.467 98.909 C 241.446 99.403,238.130 102.600,237.259 103.930 C 236.281 105.423,235.460 106.888,235.180 107.642 C 235.024 108.062,234.769 108.652,234.614 108.952 C 234.459 109.252,234.164 110.087,233.958 110.808 C 233.752 111.528,233.505 112.216,233.410 112.336 C 232.424 113.580,232.187 128.470,233.129 129.995 C 233.205 130.118,233.288 130.420,233.313 130.666 C 233.396 131.486,234.268 134.816,234.573 135.480 C 234.739 135.841,235.109 136.676,235.396 137.336 C 235.683 137.997,235.991 138.570,236.081 138.610 C 236.171 138.650,236.245 138.768,236.245 138.873 C 236.245 139.083,236.986 140.266,237.927 141.557 C 239.722 144.019,244.604 148.265,246.237 148.783 C 246.505 148.868,246.725 149.029,246.725 149.141 C 246.725 149.253,246.824 149.345,246.945 149.345 C 247.067 149.345,247.927 149.718,248.856 150.175 C 249.785 150.632,251.234 151.181,252.074 151.397 C 252.915 151.613,253.897 151.918,254.258 152.075 C 256.894 153.225,269.829 153.154,271.273 151.982 C 271.402 151.878,272.194 151.580,273.035 151.322 C 274.547 150.856,276.570 149.894,278.898 148.533 C 281.208 147.183,285.245 142.929,286.712 140.300 C 287.420 139.030,288.210 137.281,288.210 136.982 C 288.210 136.816,288.305 136.681,288.421 136.681 C 288.537 136.681,288.579 136.542,288.514 136.371 C 288.448 136.201,288.541 135.832,288.719 135.553 C 288.898 135.273,289.209 133.963,289.410 132.642 C 289.612 131.321,289.882 130.022,290.010 129.754 C 290.415 128.909,290.348 119.432,289.936 119.432 C 289.854 119.432,289.719 119.064,289.636 118.614 C 289.442 117.557,288.850 115.680,288.615 115.373 C 288.514 115.242,288.496 115.070,288.575 114.991 C 288.654 114.912,288.615 114.847,288.488 114.847 C 288.361 114.847,288.103 114.463,287.915 113.992 C 287.727 113.522,287.225 112.594,286.800 111.929 C 286.374 111.264,286.026 110.617,286.026 110.491 C 286.026 110.365,285.934 110.262,285.821 110.262 C 285.709 110.262,285.349 109.771,285.023 109.170 C 284.696 108.570,284.340 108.079,284.232 108.079 C 284.124 108.079,284.096 107.980,284.170 107.860 C 284.245 107.740,284.215 107.642,284.104 107.642 C 283.993 107.642,283.625 107.242,283.286 106.753 C 282.598 105.759,278.717 101.747,278.445 101.747 C 278.349 101.747,278.026 101.525,277.727 101.255 C 277.428 100.984,276.692 100.523,276.092 100.229 C 275.491 99.936,274.853 99.581,274.672 99.441 C 274.492 99.301,273.854 99.009,273.253 98.791 C 272.653 98.574,272.043 98.306,271.898 98.196 C 271.579 97.955,267.186 96.943,266.456 96.943 C 266.172 96.943,265.939 96.861,265.939 96.761 C 265.939 96.661,265.816 96.574,265.666 96.567 C 265.516 96.560,264.509 96.446,263.428 96.314 C 259.041 95.779,254.844 95.581,251.965 95.776 " stroke="none" fill="#24bc24" fill-rule="evenodd"></path><path id="path2" d="M259.920 1.552 C 259.875 1.625,259.344 1.743,258.741 1.814 C 257.374 1.976,254.732 2.625,254.585 2.835 C 254.525 2.922,253.811 3.212,252.999 3.480 C 252.186 3.748,251.399 4.082,251.248 4.222 C 251.098 4.362,250.485 4.722,249.887 5.022 C 249.289 5.322,248.701 5.675,248.581 5.807 C 248.461 5.939,247.994 6.266,247.544 6.535 C 247.093 6.803,246.725 7.113,246.725 7.223 C 246.725 7.333,246.589 7.424,246.423 7.424 C 245.873 7.424,237.991 15.484,237.991 16.048 C 237.991 16.216,237.842 16.437,237.660 16.539 C 237.135 16.833,234.934 21.022,234.934 21.727 C 234.934 21.886,234.840 22.049,234.724 22.089 C 233.457 22.527,233.364 33.888,234.606 36.551 C 234.780 36.923,235.081 37.817,235.275 38.537 C 235.470 39.258,235.730 40.216,235.854 40.666 C 235.978 41.116,236.152 41.485,236.241 41.485 C 236.331 41.485,236.577 41.951,236.790 42.522 C 237.002 43.092,237.360 43.762,237.584 44.010 C 237.808 44.258,237.991 44.567,237.991 44.696 C 237.991 44.826,238.286 45.248,238.646 45.633 C 239.007 46.019,239.301 46.406,239.301 46.495 C 239.301 46.583,239.645 46.968,240.066 47.350 C 240.486 47.733,240.830 48.125,240.830 48.223 C 240.830 48.649,245.129 52.435,246.178 52.933 C 246.599 53.132,246.943 53.386,246.943 53.497 C 246.943 53.608,247.508 53.964,248.199 54.288 C 248.889 54.611,249.503 54.938,249.563 55.012 C 250.098 55.679,255.658 57.642,257.010 57.642 C 257.218 57.642,257.427 57.762,257.476 57.908 C 257.590 58.251,265.873 58.305,266.111 57.964 C 266.196 57.842,267.200 57.560,268.341 57.338 C 269.481 57.116,270.759 56.755,271.179 56.535 C 271.599 56.315,272.484 55.915,273.144 55.645 C 273.805 55.375,274.394 55.086,274.454 55.003 C 274.514 54.921,275.042 54.587,275.626 54.261 C 277.267 53.347,279.202 51.802,281.030 49.945 C 281.947 49.015,282.763 48.253,282.844 48.253 C 283.019 48.253,284.741 46.475,285.808 45.192 C 286.228 44.686,286.775 44.044,287.022 43.765 C 287.270 43.485,287.663 42.885,287.896 42.431 C 288.128 41.977,288.479 41.425,288.675 41.204 C 288.871 40.983,289.200 40.268,289.405 39.615 C 289.611 38.962,289.851 38.428,289.940 38.428 C 290.029 38.428,290.327 37.470,290.602 36.299 C 290.877 35.128,291.203 33.976,291.326 33.739 C 291.639 33.136,291.606 26.351,291.289 26.245 C 291.157 26.201,291.048 25.921,291.048 25.623 C 291.048 24.836,290.116 20.864,289.912 20.779 C 289.816 20.739,289.738 20.547,289.738 20.353 C 289.738 19.805,288.651 16.376,288.476 16.370 C 288.389 16.366,288.074 15.826,287.775 15.169 C 287.476 14.512,287.164 13.974,287.083 13.974 C 287.002 13.974,286.710 13.605,286.434 13.155 C 285.550 11.711,281.629 7.642,281.121 7.642 C 280.964 7.642,280.675 7.396,280.479 7.096 C 280.282 6.796,279.990 6.550,279.830 6.550 C 279.671 6.550,279.289 6.318,278.982 6.034 C 278.676 5.750,277.949 5.290,277.368 5.012 C 276.786 4.734,276.256 4.427,276.189 4.329 C 276.123 4.232,275.337 3.893,274.443 3.576 C 273.548 3.258,272.718 2.924,272.598 2.833 C 272.310 2.614,270.042 2.046,268.668 1.848 C 268.068 1.762,267.504 1.650,267.416 1.599 C 267.158 1.450,260.010 1.406,259.920 1.552 " stroke="none" fill="#246424" fill-rule="evenodd"></path><path id="path3" d="M353.493 46.914 C 353.313 47.019,352.331 47.171,351.310 47.250 C 347.870 47.518,344.120 48.558,341.104 50.080 C 340.234 50.519,339.480 50.852,339.429 50.821 C 339.378 50.790,339.108 50.965,338.828 51.211 C 338.548 51.456,338.033 51.800,337.683 51.975 C 336.605 52.514,332.831 56.270,331.809 57.822 C 325.433 67.500,326.340 79.493,334.045 87.376 C 334.594 87.938,335.240 88.646,335.480 88.949 C 335.721 89.252,336.018 89.504,336.141 89.510 C 336.265 89.515,336.885 90.109,337.519 90.830 C 338.153 91.550,338.777 92.140,338.906 92.140 C 339.035 92.140,339.616 92.482,340.199 92.900 C 342.180 94.324,346.067 95.994,348.908 96.643 C 352.504 97.465,361.499 97.183,363.865 96.174 C 364.225 96.021,365.011 95.779,365.611 95.638 C 366.986 95.315,371.523 93.123,373.253 91.947 C 375.007 90.754,378.571 87.727,378.588 87.413 C 378.596 87.276,378.947 86.861,379.367 86.492 C 379.787 86.123,380.131 85.763,380.131 85.693 C 380.131 85.622,380.419 85.201,380.771 84.758 C 383.961 80.744,385.576 73.245,384.448 67.686 C 383.915 65.062,383.616 63.899,383.409 63.650 C 383.303 63.522,383.067 62.978,382.884 62.440 C 381.022 56.956,374.153 50.773,367.945 48.993 C 367.262 48.797,366.594 48.551,366.461 48.445 C 365.519 47.693,354.403 46.380,353.493 46.914 " stroke="none" fill="#249c24" fill-rule="evenodd"></path><path id="path4" d="M353.057 46.636 C 352.636 46.685,351.335 46.834,350.164 46.968 C 348.993 47.101,348.035 47.307,348.035 47.425 C 348.035 47.555,348.443 47.583,349.072 47.497 C 352.742 46.993,353.800 46.894,355.459 46.899 C 357.291 46.904,360.484 47.170,362.500 47.485 C 363.131 47.584,363.537 47.566,363.537 47.438 C 363.537 46.988,355.385 46.364,353.057 46.636 M346.943 47.598 C 346.943 47.718,346.794 47.817,346.611 47.817 C 346.134 47.817,342.925 48.763,342.792 48.943 C 342.730 49.026,342.042 49.368,341.263 49.704 C 339.975 50.258,339.301 50.682,339.301 50.938 C 339.301 50.991,340.043 50.646,340.950 50.171 C 342.689 49.259,345.051 48.376,346.775 47.991 C 347.343 47.864,347.755 47.675,347.690 47.570 C 347.528 47.308,346.943 47.330,346.943 47.598 M363.879 47.574 C 363.747 47.788,365.253 48.138,365.452 47.940 C 365.520 47.872,365.362 47.817,365.102 47.817 C 364.842 47.817,364.629 47.718,364.629 47.598 C 364.629 47.328,364.043 47.309,363.879 47.574 M366.201 48.345 C 366.525 48.514,367.329 48.809,367.989 49.001 C 374.188 50.803,381.029 56.975,382.884 62.440 C 383.067 62.978,383.303 63.522,383.409 63.650 C 383.616 63.899,383.915 65.062,384.448 67.686 C 385.576 73.245,383.961 80.744,380.771 84.758 C 380.419 85.201,380.131 85.622,380.131 85.693 C 380.131 85.763,379.787 86.123,379.367 86.492 C 378.947 86.861,378.606 87.325,378.610 87.523 C 378.615 87.820,378.668 87.807,378.915 87.445 C 379.216 87.005,379.964 86.112,380.908 85.066 C 381.190 84.754,381.352 84.496,381.267 84.494 C 381.183 84.493,381.230 84.417,381.373 84.326 C 381.515 84.236,381.831 83.697,382.075 83.129 C 382.318 82.561,382.625 82.096,382.756 82.096 C 382.888 82.096,382.934 81.998,382.860 81.878 C 382.786 81.758,382.805 81.659,382.902 81.659 C 382.999 81.659,383.267 81.070,383.497 80.349 C 383.728 79.629,384.003 79.039,384.111 79.039 C 384.218 79.039,384.242 78.937,384.164 78.811 C 384.087 78.686,384.131 78.454,384.262 78.297 C 385.271 77.080,385.308 66.717,384.307 65.408 C 384.209 65.280,383.997 64.683,383.836 64.083 C 383.492 62.797,382.818 61.203,382.549 61.036 C 382.444 60.972,382.182 60.427,381.966 59.826 C 381.750 59.225,381.502 58.734,381.416 58.734 C 381.329 58.734,381.033 58.365,380.759 57.915 C 380.158 56.931,376.647 53.432,375.494 52.669 C 375.042 52.370,374.672 52.034,374.672 51.923 C 374.672 51.812,374.581 51.777,374.469 51.847 C 374.357 51.916,374.203 51.871,374.127 51.747 C 374.050 51.623,373.577 51.314,373.075 51.059 C 372.572 50.805,372.101 50.503,372.028 50.389 C 371.955 50.274,371.807 50.173,371.700 50.163 C 371.474 50.142,369.830 49.469,368.886 49.010 C 367.560 48.365,365.046 47.743,366.201 48.345 M338.155 51.328 C 337.875 51.635,337.851 51.747,338.067 51.747 C 338.228 51.747,338.538 51.550,338.755 51.310 C 339.052 50.982,339.074 50.878,338.844 50.892 C 338.675 50.902,338.365 51.098,338.155 51.328 M334.792 54.203 C 333.643 55.314,332.503 56.517,332.257 56.878 C 332.011 57.238,332.321 56.972,332.945 56.287 C 333.569 55.601,334.784 54.398,335.645 53.612 C 336.506 52.826,337.136 52.183,337.045 52.183 C 336.954 52.183,335.940 53.092,334.792 54.203 M331.444 57.466 C 331.441 57.856,330.613 59.404,330.286 59.631 C 330.180 59.705,330.097 59.826,330.102 59.900 C 330.118 60.163,329.193 62.119,329.021 62.187 C 328.924 62.224,328.899 62.394,328.964 62.564 C 329.033 62.744,329.476 62.079,330.029 60.966 C 330.550 59.919,331.175 58.765,331.417 58.402 C 331.722 57.945,331.794 57.644,331.652 57.419 C 331.478 57.144,331.447 57.151,331.444 57.466 M328.636 63.388 C 328.059 64.082,326.880 73.051,327.324 73.367 C 327.411 73.429,327.524 73.920,327.575 74.458 C 327.626 74.996,327.626 74.552,327.575 73.472 C 327.450 70.796,327.875 66.884,328.508 64.888 C 329.043 63.202,329.072 62.862,328.636 63.388 M327.746 75.969 C 327.728 76.298,328.323 78.913,328.544 79.476 C 328.614 79.656,328.656 79.877,328.637 79.967 C 328.618 80.057,328.689 80.131,328.794 80.131 C 328.899 80.131,329.190 80.606,329.440 81.187 C 329.952 82.378,331.216 84.383,331.876 85.051 C 332.117 85.296,332.314 85.603,332.314 85.734 C 332.314 85.865,332.462 86.095,332.642 86.245 C 333.249 86.748,332.976 86.206,331.835 84.637 C 330.302 82.531,329.233 80.415,328.512 78.057 C 327.735 75.519,327.767 75.604,327.746 75.969 M376.965 88.991 C 376.245 89.651,375.041 90.638,374.290 91.185 C 373.540 91.731,372.926 92.224,372.926 92.281 C 372.926 92.550,375.111 90.962,376.199 89.902 C 376.662 89.451,377.139 89.083,377.261 89.083 C 377.382 89.083,377.691 88.788,377.948 88.428 C 378.576 87.545,378.486 87.597,376.965 88.991 M334.934 88.615 C 334.934 88.715,335.131 88.975,335.371 89.192 C 335.611 89.409,335.808 89.496,335.808 89.384 C 335.808 89.272,335.611 89.012,335.371 88.806 C 335.131 88.600,334.934 88.514,334.934 88.615 M336.026 89.774 C 336.026 89.914,336.085 89.970,336.158 89.897 C 336.230 89.825,336.533 90.030,336.830 90.352 C 337.392 90.962,337.300 90.573,336.723 89.902 C 336.346 89.462,336.026 89.404,336.026 89.774 M338.193 91.758 C 338.484 92.088,338.856 92.358,339.019 92.358 C 339.182 92.358,339.372 92.505,339.441 92.686 C 339.510 92.866,339.679 93.015,339.816 93.018 C 339.953 93.021,340.311 93.215,340.611 93.450 C 340.912 93.685,341.254 93.879,341.373 93.882 C 341.491 93.884,341.049 93.497,340.390 93.020 C 339.731 92.544,339.100 92.151,338.988 92.147 C 338.876 92.143,338.532 91.919,338.224 91.648 L 337.664 91.157 338.193 91.758 M370.906 93.321 C 370.216 93.692,369.651 94.058,369.651 94.134 C 369.651 94.255,372.010 93.121,372.253 92.884 C 372.598 92.546,371.968 92.751,370.906 93.321 M341.703 94.076 C 341.703 94.168,342.243 94.467,342.904 94.741 C 343.564 95.014,344.105 95.333,344.105 95.449 C 344.105 95.564,344.211 95.593,344.341 95.513 C 344.482 95.426,344.303 95.200,343.903 94.956 C 342.950 94.377,341.703 93.878,341.703 94.076 M368.231 94.646 C 367.631 94.941,367.235 95.186,367.351 95.190 C 367.755 95.203,369.432 94.481,369.432 94.293 C 369.432 94.045,369.483 94.030,368.231 94.646 M344.760 95.597 C 344.760 95.799,347.377 96.582,347.532 96.427 C 347.634 96.325,345.330 95.415,344.970 95.415 C 344.854 95.415,344.760 95.497,344.760 95.597 M365.284 95.727 C 364.743 95.870,364.114 96.072,363.884 96.174 C 363.655 96.277,362.869 96.489,362.138 96.644 C 361.098 96.865,361.022 96.904,361.790 96.823 C 363.190 96.673,366.594 95.801,366.594 95.591 C 366.594 95.384,366.566 95.387,365.284 95.727 M348.908 96.857 C 351.377 97.556,356.380 97.838,359.552 97.457 C 361.840 97.182,360.613 97.032,356.811 97.122 C 354.499 97.177,352.137 97.109,350.985 96.956 C 349.919 96.814,348.745 96.657,348.377 96.608 C 348.009 96.558,348.248 96.670,348.908 96.857 " stroke="none" fill="#249424" fill-rule="evenodd"></path></g></svg>