<?xml version="1.0" encoding="UTF-8"?>
<svg xmlns="http://www.w3.org/2000/svg" xmlns:xlink="http://www.w3.org/1999/xlink" width="32px" height="32px" viewBox="0 0 32 32" version="1.1">
<g id="surface1">
<path style=" stroke:none;fill-rule:evenodd;fill:rgb(0%,0%,0%);fill-opacity:1;" d="M 11.753906 0.691406 C -2.164062 4.433594 -4.285156 24.339844 8.566406 30.605469 C 11.617188 32.09375 12.265625 31.828125 12.265625 29.09375 L 12.265625 27.566406 L 10.734375 27.664062 C 8.765625 27.792969 7.632812 27.203125 6.75 25.585938 C 6.394531 24.933594 5.75 24.070312 5.316406 23.671875 C 4.390625 22.808594 4.355469 22.667969 5.066406 22.667969 C 5.378906 22.667969 5.601562 22.84375 5.601562 23.09375 C 5.601562 23.359375 5.746094 23.46875 5.988281 23.375 C 6.246094 23.277344 6.324219 23.355469 6.222656 23.613281 C 6.121094 23.882812 6.265625 24 6.703125 24.003906 C 7.167969 24.007812 7.234375 24.070312 6.964844 24.242188 C 6.523438 24.519531 6.84375 25.160156 7.332031 24.972656 C 7.566406 24.882812 7.628906 25.011719 7.527344 25.390625 C 7.402344 25.875 7.472656 25.921875 8.085938 25.769531 C 8.625 25.632812 8.753906 25.679688 8.640625 25.96875 C 8.410156 26.574219 9.105469 26.804688 9.507812 26.257812 C 9.828125 25.816406 9.867188 25.8125 9.867188 26.214844 C 9.867188 26.496094 10.078125 26.667969 10.429688 26.667969 C 10.820312 26.667969 10.945312 26.542969 10.835938 26.265625 C 10.753906 26.046875 10.800781 25.867188 10.941406 25.867188 C 11.082031 25.867188 11.199219 26.046875 11.199219 26.265625 C 11.199219 26.488281 11.378906 26.667969 11.601562 26.667969 C 11.820312 26.667969 12 26.445312 12 26.179688 C 12 25.910156 12.277344 25.140625 12.617188 24.472656 L 13.234375 23.25 L 11.648438 22.914062 C 6.949219 21.917969 4.402344 16.46875 6.757812 12.449219 C 7.367188 11.40625 7.476562 10.980469 7.335938 10.148438 C 7.15625 9.097656 7.585938 6.933594 7.96875 6.933594 C 8.453125 6.933594 10.058594 7.59375 10.976562 8.167969 C 11.789062 8.675781 12.097656 8.734375 12.839844 8.523438 C 13.988281 8.191406 18.011719 8.191406 19.160156 8.523438 C 19.902344 8.734375 20.210938 8.675781 21.023438 8.167969 C 21.941406 7.59375 23.546875 6.933594 24.03125 6.933594 C 24.414062 6.933594 24.84375 9.097656 24.664062 10.148438 C 24.523438 10.980469 24.632812 11.40625 25.242188 12.449219 C 27.582031 16.441406 25.238281 21.625 20.550781 22.832031 L 18.734375 23.300781 L 19.234375 24.117188 C 19.636719 24.777344 19.730469 25.472656 19.730469 27.777344 C 19.734375 31.203125 19.8125 31.464844 20.863281 31.464844 C 23.40625 31.464844 28.640625 27.1875 30.328125 23.722656 C 36.492188 11.074219 25.203125 -2.925781 11.753906 0.691406 "/>
</g>
</svg>
