<?xml version="1.0" encoding="UTF-8"?>
<svg xmlns="http://www.w3.org/2000/svg" xmlns:xlink="http://www.w3.org/1999/xlink" width="32px" height="32px" viewBox="0 0 32 32" version="1.1">
<g id="surface1">
<path style=" stroke:none;fill-rule:evenodd;fill:rgb(1.568627%,1.568627%,1.568627%);fill-opacity:1;" d="M 3.601562 0.320312 C 3.589844 0.335938 3.511719 0.351562 3.425781 0.351562 C 3.339844 0.351562 3.257812 0.367188 3.246094 0.382812 C 3.238281 0.402344 3.15625 0.414062 3.070312 0.414062 C 2.984375 0.414062 2.910156 0.429688 2.910156 0.449219 C 2.910156 0.464844 2.832031 0.480469 2.738281 0.480469 C 2.640625 0.480469 2.554688 0.496094 2.542969 0.511719 C 2.53125 0.53125 2.453125 0.542969 2.367188 0.542969 C 2.277344 0.542969 2.207031 0.558594 2.207031 0.574219 C 2.207031 0.59375 2.1875 0.609375 2.160156 0.609375 C 2.132812 0.609375 2.113281 0.621094 2.113281 0.636719 C 2.113281 0.648438 2.054688 0.6875 1.984375 0.71875 C 1.914062 0.75 1.855469 0.789062 1.855469 0.804688 C 1.855469 0.820312 1.828125 0.832031 1.792969 0.832031 C 1.757812 0.832031 1.726562 0.847656 1.726562 0.863281 C 1.726562 0.882812 1.710938 0.894531 1.6875 0.894531 C 1.664062 0.894531 1.613281 0.925781 1.574219 0.960938 C 1.539062 0.996094 1.488281 1.023438 1.464844 1.023438 C 1.441406 1.023438 1.402344 1.054688 1.375 1.089844 C 1.351562 1.125 1.304688 1.152344 1.273438 1.152344 C 1.242188 1.152344 1.214844 1.167969 1.214844 1.183594 C 1.214844 1.203125 1.195312 1.214844 1.171875 1.214844 C 1.113281 1.214844 0.9375 1.386719 0.914062 1.46875 C 0.902344 1.507812 0.878906 1.535156 0.867188 1.535156 C 0.851562 1.535156 0.820312 1.578125 0.800781 1.632812 C 0.777344 1.683594 0.746094 1.726562 0.734375 1.726562 C 0.71875 1.726562 0.695312 1.765625 0.683594 1.816406 C 0.671875 1.863281 0.632812 1.933594 0.59375 1.96875 C 0.480469 2.089844 0.414062 2.175781 0.414062 2.207031 C 0.414062 2.226562 0.402344 2.238281 0.382812 2.238281 C 0.367188 2.238281 0.351562 2.257812 0.351562 2.28125 C 0.351562 2.304688 0.324219 2.34375 0.289062 2.367188 C 0.242188 2.398438 0.222656 2.449219 0.222656 2.535156 C 0.222656 2.601562 0.210938 2.65625 0.191406 2.65625 C 0.175781 2.65625 0.160156 2.726562 0.160156 2.816406 C 0.160156 2.902344 0.144531 2.976562 0.128906 2.976562 C 0.109375 2.976562 0.0976562 3.046875 0.0976562 3.132812 C 0.0976562 3.230469 0.0820312 3.296875 0.0546875 3.304688 C 0 3.324219 0 4.546875 0.0546875 4.566406 C 0.0820312 4.578125 0.0976562 4.640625 0.0976562 4.738281 C 0.0976562 4.824219 0.109375 4.894531 0.128906 4.894531 C 0.144531 4.894531 0.160156 4.96875 0.160156 5.054688 C 0.160156 5.140625 0.175781 5.222656 0.191406 5.230469 C 0.210938 5.242188 0.222656 5.296875 0.222656 5.355469 C 0.222656 5.421875 0.246094 5.472656 0.289062 5.503906 C 0.324219 5.53125 0.351562 5.570312 0.351562 5.59375 C 0.351562 5.621094 0.378906 5.664062 0.410156 5.691406 C 0.4375 5.722656 0.484375 5.785156 0.507812 5.832031 C 0.535156 5.878906 0.566406 5.921875 0.582031 5.921875 C 0.597656 5.921875 0.609375 5.941406 0.609375 5.96875 C 0.609375 5.996094 0.621094 6.015625 0.636719 6.015625 C 0.648438 6.015625 0.6875 6.074219 0.71875 6.144531 C 0.75 6.214844 0.789062 6.273438 0.800781 6.273438 C 0.8125 6.273438 0.84375 6.316406 0.863281 6.367188 C 0.886719 6.421875 0.917969 6.464844 0.933594 6.464844 C 0.949219 6.464844 0.960938 6.488281 0.960938 6.515625 C 0.960938 6.542969 0.988281 6.574219 1.023438 6.582031 C 1.058594 6.59375 1.089844 6.613281 1.089844 6.628906 C 1.089844 6.644531 1.105469 6.65625 1.128906 6.65625 C 1.152344 6.65625 1.203125 6.683594 1.242188 6.71875 C 1.277344 6.753906 1.328125 6.785156 1.351562 6.785156 C 1.375 6.785156 1.414062 6.8125 1.441406 6.847656 C 1.464844 6.882812 1.503906 6.910156 1.527344 6.910156 C 1.550781 6.910156 1.601562 6.941406 1.640625 6.976562 C 1.675781 7.011719 1.726562 7.039062 1.75 7.039062 C 1.773438 7.039062 1.792969 7.054688 1.792969 7.070312 C 1.792969 7.085938 1.820312 7.109375 1.855469 7.121094 C 1.890625 7.132812 1.9375 7.15625 1.960938 7.179688 C 2.054688 7.265625 2.210938 7.328125 2.332031 7.328125 C 2.40625 7.328125 2.464844 7.34375 2.464844 7.359375 C 2.464844 7.378906 2.535156 7.390625 2.621094 7.390625 C 2.710938 7.390625 2.789062 7.40625 2.800781 7.425781 C 2.8125 7.441406 2.898438 7.457031 2.992188 7.457031 C 3.089844 7.457031 3.167969 7.46875 3.167969 7.488281 C 3.167969 7.503906 3.246094 7.519531 3.34375 7.519531 C 3.441406 7.519531 3.519531 7.535156 3.519531 7.550781 C 3.519531 7.570312 3.636719 7.585938 3.804688 7.585938 C 3.964844 7.585938 4.101562 7.570312 4.113281 7.550781 C 4.121094 7.535156 4.246094 7.519531 4.386719 7.519531 C 4.535156 7.519531 4.640625 7.507812 4.640625 7.488281 C 4.640625 7.46875 4.691406 7.457031 4.75 7.457031 C 4.8125 7.457031 4.867188 7.441406 4.878906 7.425781 C 4.890625 7.40625 4.941406 7.390625 4.992188 7.390625 C 5.046875 7.390625 5.089844 7.378906 5.089844 7.359375 C 5.089844 7.34375 5.132812 7.328125 5.1875 7.328125 C 5.308594 7.328125 5.921875 7.035156 6.03125 6.925781 C 6.074219 6.882812 6.121094 6.847656 6.140625 6.847656 C 6.15625 6.847656 6.226562 6.789062 6.300781 6.71875 C 6.371094 6.648438 6.449219 6.59375 6.464844 6.59375 C 6.507812 6.59375 6.59375 6.511719 6.59375 6.46875 C 6.59375 6.453125 6.664062 6.363281 6.753906 6.273438 C 6.839844 6.183594 6.910156 6.097656 6.910156 6.082031 C 6.910156 6.070312 6.933594 6.039062 6.957031 6.015625 C 6.984375 5.996094 7.039062 5.910156 7.082031 5.828125 C 7.121094 5.746094 7.195312 5.613281 7.242188 5.53125 C 7.289062 5.449219 7.328125 5.34375 7.328125 5.300781 C 7.328125 5.253906 7.34375 5.210938 7.359375 5.199219 C 7.378906 5.1875 7.390625 5.128906 7.390625 5.070312 C 7.390625 5.007812 7.40625 4.960938 7.425781 4.960938 C 7.441406 4.960938 7.457031 4.917969 7.457031 4.863281 C 7.457031 4.8125 7.46875 4.769531 7.488281 4.769531 C 7.507812 4.769531 7.519531 4.660156 7.519531 4.515625 C 7.519531 4.375 7.535156 4.25 7.550781 4.238281 C 7.570312 4.230469 7.585938 4.121094 7.585938 4 C 7.585938 3.878906 7.570312 3.769531 7.550781 3.761719 C 7.535156 3.75 7.519531 3.683594 7.519531 3.617188 C 7.519531 3.546875 7.503906 3.484375 7.488281 3.472656 C 7.46875 3.460938 7.457031 3.386719 7.457031 3.308594 C 7.457031 3.230469 7.441406 3.167969 7.425781 3.167969 C 7.40625 3.167969 7.390625 3.097656 7.390625 3.007812 C 7.390625 2.921875 7.378906 2.847656 7.363281 2.847656 C 7.347656 2.847656 7.328125 2.765625 7.320312 2.664062 C 7.300781 2.476562 7.234375 2.308594 7.152344 2.238281 C 7.125 2.21875 7.105469 2.1875 7.105469 2.167969 C 7.105469 2.148438 7.078125 2.113281 7.046875 2.082031 C 7.015625 2.054688 6.972656 1.992188 6.945312 1.945312 C 6.921875 1.894531 6.890625 1.855469 6.875 1.855469 C 6.859375 1.855469 6.847656 1.839844 6.847656 1.816406 C 6.847656 1.792969 6.804688 1.726562 6.753906 1.664062 C 6.699219 1.601562 6.65625 1.539062 6.65625 1.519531 C 6.65625 1.5 6.628906 1.464844 6.59375 1.441406 C 6.558594 1.414062 6.527344 1.367188 6.527344 1.335938 C 6.527344 1.304688 6.503906 1.28125 6.472656 1.28125 C 6.441406 1.28125 6.394531 1.25 6.367188 1.214844 C 6.34375 1.179688 6.304688 1.152344 6.28125 1.152344 C 6.257812 1.152344 6.207031 1.125 6.167969 1.089844 C 6.132812 1.054688 6.082031 1.023438 6.058594 1.023438 C 6.035156 1.023438 6.015625 1.007812 6.015625 0.992188 C 6.015625 0.972656 6 0.960938 5.976562 0.960938 C 5.957031 0.960938 5.914062 0.9375 5.886719 0.910156 C 5.824219 0.851562 5.683594 0.769531 5.480469 0.667969 C 5.40625 0.632812 5.34375 0.589844 5.34375 0.574219 C 5.34375 0.558594 5.273438 0.542969 5.183594 0.542969 C 5.097656 0.542969 5.023438 0.53125 5.023438 0.511719 C 5.023438 0.496094 4.945312 0.480469 4.851562 0.480469 C 4.753906 0.480469 4.667969 0.464844 4.65625 0.449219 C 4.644531 0.429688 4.566406 0.414062 4.476562 0.414062 C 4.390625 0.414062 4.320312 0.402344 4.320312 0.382812 C 4.320312 0.367188 4.242188 0.351562 4.144531 0.351562 C 4.046875 0.351562 3.96875 0.335938 3.96875 0.320312 C 3.96875 0.300781 3.890625 0.289062 3.792969 0.289062 C 3.699219 0.289062 3.609375 0.300781 3.601562 0.320312 M 4.128906 1.921875 C 4.226562 1.9375 4.40625 1.964844 4.527344 1.980469 C 4.648438 1.996094 4.753906 2.027344 4.761719 2.046875 C 4.769531 2.0625 4.792969 2.078125 4.820312 2.078125 C 4.84375 2.078125 4.863281 2.09375 4.863281 2.113281 C 4.863281 2.128906 4.886719 2.144531 4.910156 2.144531 C 4.9375 2.144531 4.960938 2.160156 4.960938 2.175781 C 4.960938 2.195312 4.980469 2.207031 5.007812 2.207031 C 5.035156 2.207031 5.089844 2.238281 5.128906 2.273438 C 5.164062 2.308594 5.214844 2.335938 5.238281 2.335938 C 5.261719 2.335938 5.28125 2.351562 5.28125 2.367188 C 5.28125 2.386719 5.308594 2.398438 5.34375 2.398438 C 5.382812 2.398438 5.40625 2.421875 5.40625 2.457031 C 5.40625 2.488281 5.4375 2.535156 5.472656 2.558594 C 5.507812 2.585938 5.535156 2.621094 5.535156 2.640625 C 5.535156 2.65625 5.578125 2.722656 5.632812 2.785156 C 5.683594 2.84375 5.726562 2.910156 5.726562 2.929688 C 5.726562 2.945312 5.757812 2.984375 5.792969 3.007812 C 5.832031 3.039062 5.855469 3.089844 5.855469 3.160156 C 5.855469 3.21875 5.871094 3.265625 5.886719 3.265625 C 5.90625 3.265625 5.921875 3.324219 5.921875 3.402344 C 5.921875 3.476562 5.9375 3.554688 5.957031 3.578125 C 6.011719 3.628906 6.007812 4.457031 5.957031 4.472656 C 5.9375 4.480469 5.921875 4.523438 5.921875 4.574219 C 5.921875 4.667969 5.855469 4.832031 5.816406 4.832031 C 5.804688 4.832031 5.792969 4.859375 5.792969 4.894531 C 5.792969 4.929688 5.777344 4.960938 5.761719 4.960938 C 5.742188 4.960938 5.726562 4.980469 5.726562 5.007812 C 5.726562 5.035156 5.671875 5.117188 5.601562 5.1875 C 5.53125 5.261719 5.472656 5.339844 5.472656 5.363281 C 5.472656 5.386719 5.453125 5.40625 5.429688 5.40625 C 5.402344 5.40625 5.324219 5.464844 5.25 5.535156 C 5.179688 5.605469 5.097656 5.664062 5.070312 5.664062 C 5.046875 5.664062 5.023438 5.679688 5.023438 5.695312 C 5.023438 5.714844 4.996094 5.726562 4.960938 5.726562 C 4.925781 5.726562 4.894531 5.742188 4.894531 5.761719 C 4.894531 5.777344 4.867188 5.792969 4.832031 5.792969 C 4.796875 5.792969 4.769531 5.804688 4.769531 5.824219 C 4.769531 5.839844 4.730469 5.855469 4.6875 5.855469 C 4.644531 5.855469 4.609375 5.871094 4.609375 5.886719 C 4.609375 5.90625 4.558594 5.921875 4.503906 5.921875 C 4.445312 5.921875 4.378906 5.9375 4.359375 5.957031 C 4.304688 6.011719 3.3125 6.011719 3.257812 5.957031 C 3.238281 5.9375 3.144531 5.921875 3.050781 5.921875 C 2.957031 5.921875 2.878906 5.90625 2.878906 5.886719 C 2.878906 5.871094 2.851562 5.855469 2.816406 5.855469 C 2.78125 5.855469 2.753906 5.839844 2.753906 5.824219 C 2.753906 5.804688 2.730469 5.792969 2.703125 5.792969 C 2.675781 5.792969 2.65625 5.777344 2.65625 5.761719 C 2.65625 5.742188 2.628906 5.726562 2.597656 5.726562 C 2.566406 5.726562 2.519531 5.699219 2.496094 5.664062 C 2.46875 5.628906 2.425781 5.601562 2.394531 5.601562 C 2.363281 5.601562 2.335938 5.585938 2.335938 5.566406 C 2.335938 5.550781 2.3125 5.535156 2.285156 5.535156 C 2.234375 5.535156 2.015625 5.332031 2.015625 5.285156 C 2.015625 5.265625 1.9375 5.140625 1.84375 5.003906 C 1.675781 4.757812 1.652344 4.691406 1.613281 4.351562 C 1.601562 4.273438 1.582031 4.195312 1.566406 4.175781 C 1.527344 4.136719 1.527344 3.734375 1.566406 3.695312 C 1.582031 3.675781 1.601562 3.597656 1.613281 3.519531 C 1.652344 3.195312 1.679688 3.109375 1.804688 2.929688 C 1.875 2.824219 1.953125 2.71875 1.976562 2.695312 C 1.996094 2.671875 2.015625 2.632812 2.015625 2.613281 C 2.015625 2.558594 2.160156 2.398438 2.210938 2.398438 C 2.238281 2.398438 2.277344 2.371094 2.304688 2.335938 C 2.328125 2.300781 2.375 2.273438 2.40625 2.273438 C 2.4375 2.273438 2.464844 2.257812 2.464844 2.238281 C 2.464844 2.222656 2.488281 2.207031 2.519531 2.207031 C 2.550781 2.207031 2.597656 2.179688 2.625 2.144531 C 2.648438 2.109375 2.695312 2.078125 2.722656 2.078125 C 2.753906 2.078125 2.785156 2.066406 2.789062 2.046875 C 2.796875 2.027344 2.910156 2 3.039062 1.980469 C 3.171875 1.964844 3.371094 1.9375 3.480469 1.921875 C 3.59375 1.90625 3.691406 1.886719 3.707031 1.875 C 3.71875 1.859375 3.777344 1.859375 3.839844 1.871094 C 3.902344 1.882812 4.03125 1.90625 4.128906 1.921875 M 0.609375 20.191406 L 0.609375 31.777344 L 7.039062 31.777344 L 7.039062 8.609375 L 0.609375 8.609375 L 0.609375 20.191406 M 10.398438 20.191406 L 10.398438 31.777344 L 17.46875 31.777344 L 17.488281 31.671875 C 17.496094 31.613281 17.507812 28.746094 17.511719 25.292969 C 17.519531 20.617188 17.53125 19.007812 17.558594 18.972656 C 17.578125 18.949219 17.601562 18.847656 17.613281 18.753906 C 17.648438 18.398438 17.671875 18.273438 17.699219 18.273438 C 17.714844 18.273438 17.726562 18.214844 17.726562 18.144531 C 17.726562 18.074219 17.742188 18.015625 17.761719 18.015625 C 17.777344 18.015625 17.792969 17.980469 17.792969 17.941406 C 17.792969 17.863281 17.929688 17.585938 17.988281 17.550781 C 18.003906 17.539062 18.015625 17.507812 18.015625 17.476562 C 18.015625 17.445312 18.042969 17.402344 18.078125 17.375 C 18.113281 17.351562 18.144531 17.308594 18.144531 17.28125 C 18.144531 17.253906 18.171875 17.210938 18.207031 17.183594 C 18.242188 17.160156 18.273438 17.117188 18.273438 17.089844 C 18.273438 17.0625 18.300781 17.015625 18.335938 16.992188 C 18.371094 16.964844 18.398438 16.925781 18.398438 16.902344 C 18.398438 16.835938 18.84375 16.480469 18.929688 16.480469 C 18.9375 16.480469 18.976562 16.453125 19.015625 16.414062 C 19.054688 16.378906 19.125 16.335938 19.175781 16.3125 C 19.222656 16.289062 19.265625 16.261719 19.265625 16.25 C 19.265625 16.234375 19.300781 16.222656 19.34375 16.222656 C 19.386719 16.222656 19.429688 16.210938 19.441406 16.191406 C 19.449219 16.175781 19.523438 16.160156 19.601562 16.160156 C 19.675781 16.160156 19.75 16.144531 19.761719 16.128906 C 19.769531 16.109375 19.84375 16.097656 19.921875 16.097656 C 19.996094 16.097656 20.070312 16.082031 20.078125 16.0625 C 20.089844 16.046875 20.285156 16.03125 20.554688 16.03125 C 20.808594 16.03125 21.09375 16.015625 21.195312 15.996094 C 21.335938 15.96875 21.386719 15.96875 21.417969 15.996094 C 21.4375 16.015625 21.507812 16.03125 21.574219 16.03125 C 21.636719 16.03125 21.699219 16.046875 21.710938 16.0625 C 21.722656 16.082031 21.789062 16.097656 21.859375 16.097656 C 21.925781 16.097656 21.984375 16.109375 21.984375 16.128906 C 21.984375 16.144531 22.039062 16.160156 22.109375 16.160156 C 22.179688 16.160156 22.246094 16.175781 22.257812 16.191406 C 22.265625 16.210938 22.332031 16.222656 22.402344 16.222656 C 22.472656 16.222656 22.527344 16.238281 22.527344 16.257812 C 22.527344 16.273438 22.585938 16.289062 22.65625 16.289062 C 22.726562 16.289062 22.785156 16.300781 22.785156 16.316406 C 22.785156 16.328125 22.824219 16.363281 22.871094 16.386719 C 22.921875 16.410156 22.992188 16.464844 23.035156 16.503906 C 23.074219 16.542969 23.117188 16.574219 23.132812 16.574219 C 23.15625 16.574219 23.203125 16.613281 23.351562 16.734375 C 23.371094 16.753906 23.398438 16.769531 23.410156 16.769531 C 23.421875 16.769531 23.46875 16.8125 23.519531 16.863281 C 23.570312 16.917969 23.625 16.960938 23.644531 16.960938 C 23.691406 16.960938 24.03125 17.308594 24.03125 17.363281 C 24.03125 17.386719 24.046875 17.40625 24.0625 17.40625 C 24.082031 17.40625 24.097656 17.433594 24.097656 17.464844 C 24.097656 17.496094 24.125 17.542969 24.160156 17.566406 C 24.195312 17.59375 24.222656 17.640625 24.222656 17.671875 C 24.222656 17.703125 24.238281 17.726562 24.257812 17.726562 C 24.273438 17.726562 24.289062 17.75 24.289062 17.777344 C 24.289062 17.800781 24.300781 17.824219 24.320312 17.824219 C 24.335938 17.824219 24.351562 17.84375 24.351562 17.871094 C 24.351562 17.898438 24.367188 17.921875 24.382812 17.921875 C 24.402344 17.921875 24.414062 17.941406 24.414062 17.96875 C 24.414062 17.996094 24.429688 18.015625 24.449219 18.015625 C 24.464844 18.015625 24.480469 18.035156 24.480469 18.058594 C 24.480469 18.082031 24.507812 18.132812 24.542969 18.167969 C 24.578125 18.207031 24.609375 18.257812 24.609375 18.285156 C 24.609375 18.308594 24.625 18.335938 24.644531 18.34375 C 24.664062 18.347656 24.691406 18.433594 24.710938 18.527344 C 24.726562 18.625 24.753906 18.78125 24.773438 18.878906 C 24.789062 18.976562 24.8125 19.121094 24.820312 19.199219 C 24.832031 19.277344 24.851562 19.359375 24.867188 19.375 C 24.882812 19.390625 24.894531 19.472656 24.894531 19.554688 C 24.894531 19.640625 24.910156 19.71875 24.929688 19.726562 C 24.949219 19.742188 24.960938 21.785156 24.960938 25.761719 L 24.960938 31.777344 L 32 31.777344 L 31.992188 24.136719 C 31.984375 18.0625 31.976562 16.5 31.945312 16.488281 C 31.917969 16.480469 31.902344 16.414062 31.902344 16.320312 C 31.902344 16.234375 31.890625 16.15625 31.871094 16.144531 C 31.855469 16.132812 31.839844 16.046875 31.839844 15.949219 C 31.839844 15.855469 31.824219 15.777344 31.808594 15.777344 C 31.789062 15.777344 31.777344 15.710938 31.777344 15.632812 C 31.777344 15.554688 31.761719 15.484375 31.742188 15.472656 C 31.726562 15.460938 31.710938 15.410156 31.710938 15.359375 C 31.710938 15.308594 31.699219 15.257812 31.679688 15.246094 C 31.664062 15.238281 31.648438 15.1875 31.648438 15.132812 C 31.648438 15.082031 31.632812 15.039062 31.617188 15.039062 C 31.597656 15.039062 31.585938 14.996094 31.585938 14.945312 C 31.585938 14.890625 31.570312 14.847656 31.550781 14.847656 C 31.535156 14.847656 31.519531 14.804688 31.519531 14.753906 C 31.519531 14.699219 31.503906 14.65625 31.488281 14.65625 C 31.46875 14.65625 31.457031 14.605469 31.457031 14.542969 C 31.457031 14.480469 31.441406 14.433594 31.425781 14.433594 C 31.40625 14.433594 31.390625 14.390625 31.390625 14.339844 C 31.390625 14.285156 31.378906 14.234375 31.363281 14.226562 C 31.347656 14.214844 31.324219 14.15625 31.3125 14.097656 C 31.300781 14.035156 31.28125 13.984375 31.261719 13.984375 C 31.246094 13.984375 31.230469 13.960938 31.230469 13.933594 C 31.230469 13.90625 31.203125 13.824219 31.167969 13.753906 C 31.132812 13.679688 31.105469 13.601562 31.105469 13.578125 C 31.105469 13.554688 31.089844 13.535156 31.070312 13.535156 C 31.054688 13.535156 31.039062 13.507812 31.039062 13.472656 C 31.039062 13.4375 31.027344 13.40625 31.007812 13.40625 C 30.992188 13.40625 30.976562 13.378906 30.976562 13.34375 C 30.976562 13.308594 30.960938 13.28125 30.945312 13.28125 C 30.925781 13.28125 30.910156 13.253906 30.910156 13.21875 C 30.910156 13.183594 30.898438 13.148438 30.878906 13.136719 C 30.863281 13.125 30.847656 13.089844 30.847656 13.054688 C 30.847656 13.019531 30.832031 12.992188 30.816406 12.992188 C 30.796875 12.992188 30.785156 12.96875 30.785156 12.945312 C 30.785156 12.917969 30.769531 12.894531 30.753906 12.894531 C 30.734375 12.894531 30.71875 12.875 30.71875 12.851562 C 30.71875 12.828125 30.691406 12.785156 30.65625 12.753906 C 30.621094 12.71875 30.59375 12.675781 30.59375 12.652344 C 30.59375 12.628906 30.578125 12.609375 30.558594 12.609375 C 30.542969 12.609375 30.527344 12.589844 30.527344 12.566406 C 30.527344 12.542969 30.5 12.492188 30.464844 12.457031 C 30.429688 12.417969 30.398438 12.367188 30.398438 12.34375 C 30.398438 12.320312 30.371094 12.28125 30.335938 12.257812 C 30.300781 12.230469 30.273438 12.1875 30.273438 12.160156 C 30.273438 12.132812 30.242188 12.089844 30.207031 12.0625 C 30.171875 12.039062 30.144531 12 30.144531 11.976562 C 30.144531 11.953125 30.09375 11.882812 30.027344 11.816406 C 29.964844 11.75 29.875 11.636719 29.824219 11.566406 C 29.777344 11.496094 29.695312 11.402344 29.640625 11.359375 C 29.589844 11.316406 29.515625 11.230469 29.472656 11.167969 C 29.375 11.03125 29.355469 11.007812 29.214844 10.910156 C 29.15625 10.867188 29.023438 10.75 28.921875 10.648438 C 28.820312 10.546875 28.726562 10.464844 28.714844 10.460938 C 28.699219 10.460938 28.628906 10.402344 28.558594 10.335938 C 28.488281 10.265625 28.421875 10.207031 28.40625 10.207031 C 28.394531 10.207031 28.363281 10.195312 28.34375 10.175781 C 28.253906 10.101562 28.058594 9.984375 28.023438 9.984375 C 28 9.984375 27.960938 9.957031 27.9375 9.921875 C 27.910156 9.886719 27.867188 9.855469 27.839844 9.855469 C 27.8125 9.855469 27.769531 9.828125 27.742188 9.792969 C 27.71875 9.757812 27.671875 9.726562 27.640625 9.726562 C 27.609375 9.726562 27.585938 9.714844 27.585938 9.695312 C 27.585938 9.679688 27.554688 9.664062 27.519531 9.664062 C 27.484375 9.664062 27.457031 9.648438 27.457031 9.632812 C 27.457031 9.613281 27.425781 9.601562 27.390625 9.601562 C 27.355469 9.601562 27.328125 9.589844 27.328125 9.574219 C 27.328125 9.558594 27.277344 9.527344 27.214844 9.503906 C 27.15625 9.480469 27.105469 9.449219 27.105469 9.433594 C 27.105469 9.417969 27.074219 9.40625 27.039062 9.40625 C 27.003906 9.40625 26.976562 9.394531 26.976562 9.375 C 26.976562 9.359375 26.945312 9.34375 26.910156 9.34375 C 26.875 9.34375 26.847656 9.328125 26.847656 9.3125 C 26.847656 9.292969 26.820312 9.28125 26.785156 9.28125 C 26.75 9.28125 26.71875 9.265625 26.71875 9.246094 C 26.71875 9.230469 26.691406 9.214844 26.65625 9.214844 C 26.625 9.214844 26.585938 9.203125 26.574219 9.183594 C 26.566406 9.167969 26.527344 9.152344 26.492188 9.152344 C 26.460938 9.152344 26.40625 9.140625 26.375 9.125 C 26.34375 9.109375 26.210938 9.0625 26.078125 9.023438 C 25.949219 8.980469 25.828125 8.9375 25.808594 8.921875 C 25.792969 8.90625 25.75 8.894531 25.710938 8.894531 C 25.675781 8.894531 25.632812 8.882812 25.613281 8.867188 C 25.597656 8.851562 25.527344 8.832031 25.457031 8.820312 C 25.386719 8.8125 25.25 8.789062 25.152344 8.773438 C 24.675781 8.683594 24.570312 8.671875 24.3125 8.671875 C 24.160156 8.671875 24.027344 8.65625 24.015625 8.640625 C 23.988281 8.597656 22.667969 8.597656 22.640625 8.640625 C 22.628906 8.65625 22.503906 8.671875 22.359375 8.671875 C 22.015625 8.675781 21.609375 8.726562 21.136719 8.832031 C 21.046875 8.851562 20.921875 8.875 20.855469 8.886719 C 20.789062 8.894531 20.734375 8.914062 20.734375 8.929688 C 20.734375 8.945312 20.6875 8.960938 20.625 8.960938 C 20.566406 8.960938 20.507812 8.972656 20.496094 8.992188 C 20.484375 9.007812 20.445312 9.023438 20.40625 9.023438 C 20.363281 9.023438 20.320312 9.035156 20.300781 9.050781 C 20.285156 9.066406 20.160156 9.113281 20.023438 9.15625 C 19.886719 9.199219 19.777344 9.242188 19.777344 9.257812 C 19.777344 9.269531 19.746094 9.28125 19.710938 9.28125 C 19.675781 9.28125 19.648438 9.292969 19.648438 9.3125 C 19.648438 9.328125 19.613281 9.34375 19.566406 9.34375 C 19.523438 9.34375 19.488281 9.359375 19.488281 9.375 C 19.488281 9.394531 19.460938 9.40625 19.425781 9.40625 C 19.390625 9.40625 19.359375 9.421875 19.359375 9.441406 C 19.359375 9.457031 19.332031 9.472656 19.296875 9.472656 C 19.261719 9.472656 19.230469 9.488281 19.230469 9.503906 C 19.230469 9.523438 19.203125 9.535156 19.167969 9.535156 C 19.132812 9.535156 19.105469 9.550781 19.105469 9.566406 C 19.105469 9.585938 19.078125 9.601562 19.046875 9.601562 C 19.015625 9.601562 18.96875 9.628906 18.945312 9.664062 C 18.917969 9.699219 18.871094 9.726562 18.839844 9.726562 C 18.808594 9.726562 18.785156 9.742188 18.785156 9.761719 C 18.785156 9.777344 18.753906 9.792969 18.71875 9.792969 C 18.683594 9.792969 18.65625 9.804688 18.65625 9.824219 C 18.65625 9.839844 18.632812 9.855469 18.609375 9.855469 C 18.582031 9.855469 18.558594 9.871094 18.558594 9.886719 C 18.558594 9.90625 18.539062 9.921875 18.511719 9.921875 C 18.484375 9.921875 18.464844 9.933594 18.464844 9.945312 C 18.464844 9.960938 18.425781 9.992188 18.375 10.019531 C 18.25 10.082031 18.082031 10.207031 17.957031 10.332031 C 17.820312 10.464844 17.8125 10.457031 17.785156 10.070312 C 17.769531 9.890625 17.742188 9.601562 17.726562 9.425781 C 17.707031 9.246094 17.6875 8.992188 17.675781 8.855469 L 17.660156 8.609375 L 10.398438 8.609375 L 10.398438 20.191406 M 5.472656 20.175781 L 5.472656 30.207031 L 2.144531 30.207031 L 2.144531 10.144531 L 5.472656 10.144531 L 5.472656 20.175781 M 16.222656 10.316406 C 16.222656 10.414062 16.238281 10.5 16.257812 10.511719 C 16.273438 10.523438 16.289062 10.667969 16.289062 10.832031 C 16.289062 11.015625 16.300781 11.136719 16.320312 11.136719 C 16.339844 11.136719 16.351562 11.257812 16.351562 11.4375 C 16.351562 11.605469 16.367188 11.75 16.382812 11.761719 C 16.402344 11.769531 16.414062 11.914062 16.414062 12.082031 C 16.414062 12.261719 16.429688 12.382812 16.449219 12.382812 C 16.46875 12.382812 16.480469 12.5 16.480469 12.671875 L 16.480469 12.960938 L 17.125 12.960938 C 17.820312 12.960938 17.84375 12.953125 17.90625 12.765625 C 17.914062 12.730469 17.9375 12.703125 17.953125 12.703125 C 17.96875 12.703125 17.988281 12.671875 18.003906 12.632812 C 18.015625 12.59375 18.066406 12.523438 18.117188 12.476562 C 18.167969 12.429688 18.207031 12.375 18.207031 12.359375 C 18.207031 12.34375 18.265625 12.269531 18.335938 12.195312 C 18.40625 12.125 18.464844 12.050781 18.464844 12.03125 C 18.464844 11.984375 18.613281 11.839844 18.65625 11.839844 C 18.679688 11.839844 18.734375 11.800781 18.777344 11.75 C 18.824219 11.703125 18.914062 11.625 18.976562 11.582031 C 19.039062 11.539062 19.128906 11.464844 19.179688 11.417969 C 19.230469 11.367188 19.285156 11.328125 19.300781 11.328125 C 19.3125 11.328125 19.359375 11.292969 19.402344 11.25 C 19.484375 11.167969 19.726562 11.039062 19.796875 11.039062 C 19.820312 11.039062 19.839844 11.027344 19.839844 11.007812 C 19.839844 10.992188 19.867188 10.976562 19.902344 10.976562 C 19.9375 10.976562 19.972656 10.960938 19.984375 10.945312 C 19.996094 10.925781 20.039062 10.910156 20.082031 10.910156 C 20.125 10.910156 20.160156 10.898438 20.160156 10.878906 C 20.160156 10.863281 20.1875 10.847656 20.222656 10.847656 C 20.257812 10.847656 20.289062 10.832031 20.289062 10.816406 C 20.289062 10.796875 20.324219 10.785156 20.367188 10.785156 C 20.410156 10.785156 20.449219 10.769531 20.449219 10.753906 C 20.449219 10.734375 20.46875 10.71875 20.488281 10.71875 C 20.511719 10.71875 20.589844 10.691406 20.664062 10.65625 C 20.738281 10.621094 20.820312 10.59375 20.847656 10.59375 C 20.875 10.59375 20.894531 10.578125 20.894531 10.558594 C 20.894531 10.542969 20.925781 10.527344 20.960938 10.527344 C 20.996094 10.527344 21.023438 10.511719 21.023438 10.496094 C 21.023438 10.476562 21.066406 10.464844 21.117188 10.464844 C 21.167969 10.464844 21.222656 10.449219 21.230469 10.433594 C 21.242188 10.414062 21.359375 10.398438 21.488281 10.398438 C 21.628906 10.398438 21.726562 10.386719 21.726562 10.367188 C 21.726562 10.347656 21.835938 10.335938 21.980469 10.335938 C 22.121094 10.335938 22.246094 10.320312 22.257812 10.304688 C 22.265625 10.285156 22.382812 10.273438 22.511719 10.273438 C 22.640625 10.273438 22.757812 10.257812 22.769531 10.238281 C 22.777344 10.222656 22.894531 10.207031 23.027344 10.207031 C 23.164062 10.207031 23.265625 10.195312 23.265625 10.175781 C 23.265625 10.132812 23.796875 10.132812 23.824219 10.175781 C 23.835938 10.195312 23.984375 10.207031 24.160156 10.207031 C 24.351562 10.207031 24.480469 10.222656 24.480469 10.238281 C 24.480469 10.257812 24.550781 10.273438 24.640625 10.273438 C 24.726562 10.273438 24.800781 10.285156 24.800781 10.304688 C 24.800781 10.320312 24.863281 10.335938 24.941406 10.335938 C 25.019531 10.335938 25.09375 10.351562 25.105469 10.367188 C 25.113281 10.386719 25.15625 10.398438 25.199219 10.398438 C 25.242188 10.398438 25.285156 10.414062 25.296875 10.433594 C 25.308594 10.449219 25.351562 10.464844 25.394531 10.464844 C 25.4375 10.464844 25.472656 10.476562 25.472656 10.496094 C 25.472656 10.511719 25.515625 10.527344 25.566406 10.527344 C 25.621094 10.527344 25.664062 10.542969 25.664062 10.558594 C 25.664062 10.578125 25.707031 10.59375 25.761719 10.59375 C 25.8125 10.59375 25.855469 10.605469 25.855469 10.625 C 25.855469 10.640625 25.898438 10.65625 25.953125 10.65625 C 26.003906 10.65625 26.046875 10.667969 26.046875 10.683594 C 26.046875 10.695312 26.097656 10.726562 26.160156 10.753906 C 26.222656 10.777344 26.273438 10.808594 26.273438 10.820312 C 26.273438 10.835938 26.300781 10.847656 26.335938 10.847656 C 26.371094 10.847656 26.398438 10.863281 26.398438 10.878906 C 26.398438 10.898438 26.429688 10.910156 26.464844 10.910156 C 26.5 10.910156 26.527344 10.925781 26.527344 10.945312 C 26.527344 10.960938 26.558594 10.976562 26.59375 10.976562 C 26.628906 10.976562 26.65625 10.992188 26.65625 11.007812 C 26.65625 11.027344 26.683594 11.039062 26.71875 11.039062 C 26.753906 11.039062 26.785156 11.054688 26.785156 11.070312 C 26.785156 11.089844 26.8125 11.105469 26.847656 11.105469 C 26.882812 11.105469 26.910156 11.117188 26.910156 11.128906 C 26.910156 11.144531 26.984375 11.199219 27.070312 11.25 C 27.160156 11.300781 27.230469 11.355469 27.230469 11.367188 C 27.230469 11.382812 27.257812 11.390625 27.289062 11.390625 C 27.320312 11.390625 27.367188 11.421875 27.390625 11.457031 C 27.417969 11.492188 27.449219 11.519531 27.464844 11.519531 C 27.476562 11.519531 27.539062 11.566406 27.59375 11.625 C 27.652344 11.679688 27.75 11.765625 27.808594 11.808594 C 27.929688 11.898438 28.480469 12.4375 28.480469 12.464844 C 28.480469 12.472656 28.511719 12.515625 28.550781 12.558594 C 28.65625 12.664062 28.742188 12.765625 28.832031 12.894531 C 28.875 12.957031 28.917969 13.015625 28.925781 13.023438 C 28.9375 13.03125 28.964844 13.078125 28.988281 13.128906 C 29.015625 13.175781 29.046875 13.214844 29.0625 13.214844 C 29.074219 13.214844 29.089844 13.238281 29.089844 13.265625 C 29.089844 13.292969 29.117188 13.34375 29.152344 13.382812 C 29.1875 13.421875 29.214844 13.472656 29.214844 13.492188 C 29.214844 13.515625 29.230469 13.535156 29.246094 13.535156 C 29.265625 13.535156 29.28125 13.554688 29.28125 13.578125 C 29.28125 13.601562 29.304688 13.648438 29.335938 13.683594 C 29.371094 13.714844 29.417969 13.789062 29.441406 13.847656 C 29.46875 13.90625 29.5 13.953125 29.511719 13.953125 C 29.523438 13.953125 29.535156 13.980469 29.535156 14.015625 C 29.535156 14.050781 29.550781 14.078125 29.566406 14.078125 C 29.585938 14.078125 29.601562 14.109375 29.601562 14.144531 C 29.601562 14.179688 29.613281 14.207031 29.632812 14.207031 C 29.648438 14.207031 29.664062 14.242188 29.664062 14.285156 C 29.664062 14.328125 29.679688 14.375 29.695312 14.382812 C 29.714844 14.394531 29.726562 14.433594 29.726562 14.464844 C 29.726562 14.5 29.742188 14.527344 29.761719 14.527344 C 29.777344 14.527344 29.792969 14.558594 29.792969 14.59375 C 29.792969 14.628906 29.804688 14.65625 29.824219 14.65625 C 29.839844 14.65625 29.855469 14.683594 29.855469 14.71875 C 29.855469 14.753906 29.871094 14.785156 29.886719 14.785156 C 29.90625 14.785156 29.921875 14.828125 29.921875 14.878906 C 29.921875 14.933594 29.933594 14.976562 29.953125 14.976562 C 29.96875 14.976562 29.984375 15.007812 29.984375 15.050781 C 29.984375 15.089844 30.003906 15.1875 30.027344 15.265625 C 30.050781 15.34375 30.089844 15.472656 30.113281 15.550781 C 30.132812 15.632812 30.164062 15.722656 30.179688 15.75 C 30.195312 15.78125 30.207031 15.84375 30.207031 15.886719 C 30.207031 15.929688 30.222656 15.972656 30.238281 15.984375 C 30.257812 15.996094 30.273438 16.074219 30.273438 16.160156 C 30.273438 16.246094 30.285156 16.324219 30.304688 16.335938 C 30.320312 16.347656 30.335938 16.425781 30.335938 16.511719 C 30.335938 16.597656 30.351562 16.675781 30.367188 16.6875 C 30.386719 16.699219 30.398438 16.785156 30.398438 16.875 C 30.398438 16.96875 30.414062 17.058594 30.429688 17.074219 C 30.492188 17.136719 30.5 17.921875 30.515625 23.992188 L 30.527344 30.207031 L 26.527344 30.207031 L 26.527344 24.945312 C 26.527344 21.472656 26.515625 19.675781 26.496094 19.664062 C 26.476562 19.652344 26.464844 19.582031 26.464844 19.503906 C 26.464844 19.425781 26.449219 19.355469 26.433594 19.34375 C 26.414062 19.332031 26.398438 19.253906 26.398438 19.167969 C 26.398438 19.082031 26.386719 19.003906 26.367188 18.992188 C 26.351562 18.980469 26.335938 18.910156 26.335938 18.832031 C 26.335938 18.753906 26.320312 18.683594 26.304688 18.671875 C 26.285156 18.660156 26.273438 18.589844 26.273438 18.511719 C 26.273438 18.433594 26.257812 18.363281 26.238281 18.351562 C 26.222656 18.339844 26.207031 18.269531 26.207031 18.191406 C 26.207031 18.113281 26.195312 18.046875 26.175781 18.046875 C 26.160156 18.046875 26.144531 17.992188 26.144531 17.921875 C 26.144531 17.847656 26.128906 17.792969 26.113281 17.792969 C 26.09375 17.792969 26.078125 17.761719 26.078125 17.726562 C 26.078125 17.691406 26.070312 17.664062 26.054688 17.664062 C 26.042969 17.664062 25.988281 17.578125 25.9375 17.472656 C 25.886719 17.367188 25.832031 17.28125 25.820312 17.28125 C 25.804688 17.28125 25.792969 17.261719 25.792969 17.238281 C 25.792969 17.214844 25.761719 17.164062 25.726562 17.128906 C 25.691406 17.089844 25.664062 17.050781 25.664062 17.039062 C 25.664062 17.027344 25.621094 16.957031 25.566406 16.878906 C 25.515625 16.804688 25.472656 16.726562 25.472656 16.714844 C 25.472656 16.699219 25.441406 16.664062 25.40625 16.640625 C 25.371094 16.613281 25.34375 16.574219 25.34375 16.550781 C 25.34375 16.527344 25.316406 16.476562 25.28125 16.441406 C 25.246094 16.402344 25.214844 16.351562 25.214844 16.328125 C 25.214844 16.308594 25.203125 16.289062 25.183594 16.289062 C 25.167969 16.289062 25.152344 16.269531 25.152344 16.246094 C 25.152344 16.191406 24.882812 15.902344 24.832031 15.902344 C 24.8125 15.902344 24.761719 15.871094 24.722656 15.832031 C 24.605469 15.71875 24.535156 15.667969 24.300781 15.507812 C 24.179688 15.429688 24.046875 15.332031 24.007812 15.296875 C 23.96875 15.261719 23.921875 15.230469 23.902344 15.230469 C 23.882812 15.230469 23.824219 15.1875 23.777344 15.136719 C 23.726562 15.082031 23.667969 15.039062 23.648438 15.039062 C 23.628906 15.039062 23.570312 14.996094 23.519531 14.945312 C 23.453125 14.871094 23.402344 14.847656 23.316406 14.847656 C 23.25 14.847656 23.199219 14.832031 23.199219 14.816406 C 23.199219 14.796875 23.136719 14.785156 23.054688 14.785156 C 22.976562 14.785156 22.910156 14.769531 22.910156 14.753906 C 22.910156 14.734375 22.855469 14.71875 22.785156 14.71875 C 22.714844 14.71875 22.652344 14.707031 22.640625 14.6875 C 22.628906 14.671875 22.5625 14.65625 22.496094 14.65625 C 22.425781 14.65625 22.363281 14.640625 22.351562 14.625 C 22.339844 14.605469 22.277344 14.59375 22.207031 14.59375 C 22.136719 14.59375 22.078125 14.578125 22.078125 14.558594 C 22.078125 14.542969 22.023438 14.527344 21.953125 14.527344 C 21.882812 14.527344 21.820312 14.511719 21.808594 14.496094 C 21.796875 14.476562 21.734375 14.464844 21.667969 14.464844 C 21.601562 14.464844 21.53125 14.449219 21.515625 14.429688 C 21.492188 14.40625 21.390625 14.402344 21.226562 14.414062 C 21.089844 14.421875 20.734375 14.441406 20.441406 14.449219 C 20.144531 14.460938 19.902344 14.484375 19.902344 14.5 C 19.902344 14.515625 19.839844 14.527344 19.761719 14.527344 C 19.683594 14.527344 19.609375 14.542969 19.601562 14.558594 C 19.589844 14.578125 19.523438 14.59375 19.457031 14.59375 C 19.386719 14.59375 19.324219 14.605469 19.3125 14.625 C 19.300781 14.640625 19.234375 14.65625 19.167969 14.65625 C 19.101562 14.65625 19.035156 14.671875 19.023438 14.6875 C 19.011719 14.707031 18.941406 14.71875 18.863281 14.71875 C 18.785156 14.71875 18.71875 14.734375 18.71875 14.753906 C 18.71875 14.769531 18.695312 14.785156 18.664062 14.785156 C 18.632812 14.785156 18.585938 14.8125 18.558594 14.847656 C 18.535156 14.882812 18.496094 14.910156 18.472656 14.910156 C 18.449219 14.910156 18.398438 14.941406 18.359375 14.976562 C 18.324219 15.011719 18.273438 15.039062 18.25 15.039062 C 18.226562 15.039062 18.207031 15.054688 18.207031 15.070312 C 18.207031 15.089844 18.1875 15.105469 18.160156 15.105469 C 18.132812 15.105469 18.113281 15.117188 18.113281 15.128906 C 18.113281 15.144531 18.074219 15.175781 18.023438 15.203125 C 17.976562 15.226562 17.929688 15.257812 17.921875 15.269531 C 17.910156 15.277344 17.828125 15.328125 17.734375 15.375 C 17.570312 15.457031 17.34375 15.648438 17.34375 15.703125 C 17.34375 15.714844 17.300781 15.777344 17.246094 15.839844 C 17.195312 15.902344 17.152344 15.96875 17.152344 15.992188 C 17.152344 16.015625 17.140625 16.03125 17.125 16.03125 C 17.109375 16.03125 17.078125 16.070312 17.054688 16.121094 C 17.027344 16.167969 16.984375 16.230469 16.953125 16.257812 C 16.921875 16.289062 16.894531 16.335938 16.894531 16.363281 C 16.894531 16.390625 16.882812 16.414062 16.871094 16.414062 C 16.855469 16.414062 16.824219 16.457031 16.796875 16.503906 C 16.75 16.59375 16.71875 16.640625 16.648438 16.71875 C 16.625 16.742188 16.609375 16.773438 16.609375 16.78125 C 16.609375 16.792969 16.578125 16.832031 16.542969 16.871094 C 16.507812 16.910156 16.480469 16.957031 16.480469 16.980469 C 16.480469 17.003906 16.464844 17.023438 16.449219 17.023438 C 16.429688 17.023438 16.414062 17.054688 16.414062 17.089844 C 16.414062 17.125 16.402344 17.152344 16.382812 17.152344 C 16.367188 17.152344 16.351562 17.195312 16.351562 17.246094 C 16.351562 17.300781 16.335938 17.34375 16.320312 17.34375 C 16.300781 17.34375 16.289062 17.386719 16.289062 17.441406 C 16.289062 17.492188 16.273438 17.535156 16.257812 17.535156 C 16.238281 17.535156 16.222656 17.585938 16.222656 17.644531 C 16.222656 17.707031 16.210938 17.765625 16.191406 17.777344 C 16.175781 17.785156 16.160156 17.851562 16.160156 17.921875 C 16.160156 17.992188 16.144531 18.046875 16.128906 18.046875 C 16.109375 18.046875 16.097656 18.113281 16.097656 18.191406 C 16.097656 18.269531 16.082031 18.339844 16.0625 18.351562 C 16.046875 18.363281 16.03125 18.457031 16.03125 18.558594 C 16.03125 18.664062 16.019531 18.757812 16 18.769531 C 15.980469 18.777344 15.96875 18.925781 15.96875 19.105469 C 15.96875 19.28125 15.953125 19.429688 15.9375 19.441406 C 15.914062 19.453125 15.902344 21.285156 15.902344 24.832031 L 15.902344 30.207031 L 11.96875 30.207031 L 11.96875 10.144531 L 16.222656 10.144531 L 16.222656 10.316406 "/>
</g>
</svg>
